USFL
nRows=286
nColumns=2
inDegrees=yes
endheader
time	tib_ant_r	
3.75907	 74.149079	
3.79234	 74.162397	
3.8256	 74.165329	
3.85887	 74.174242	
3.89214	 74.179989	
3.9254	 74.180453	
3.95867	 74.212184	
3.99194	 74.199308	
4.0252	 74.203041	
4.05847	 74.202542	
4.09173	 74.176205	
4.125	 74.234527	
4.15827	 74.263328	
4.19153	 74.322692	
4.2248	 74.342092	
4.25806	 74.313205	
4.29133	 74.276508	
4.3246	 74.275014	
4.35786	 74.266676	
4.39113	 74.283352	
4.4244	 74.296671	
4.45766	 74.290140	
4.49093	 74.245148	
4.52419	 74.221329	
4.55746	 74.112806	
4.59073	 74.116701	
4.62399	 74.079838	
4.65726	 74.100760	
4.69052	 74.107499	
4.72379	 74.115239	
4.75706	 74.143367	
4.79032	 74.194660	
4.82359	 74.174319	
4.85685	 74.126598	
4.89012	 74.147447	
4.92339	 74.145150	
4.95665	 74.130128	
4.98992	 74.119606	
5.02319	 74.131097	
5.05645	 74.141893	
5.08972	 74.129297	
5.12298	 74.047899	
5.15625	 73.989660	
5.18952	 73.997208	
5.22278	 73.977997	
5.25605	 73.998396	
5.28931	 73.940683	
5.32258	 73.919464	
5.35585	 73.016193	
5.38911	 72.770162	
5.42238	 72.905354	
5.45565	 72.724514	
5.48891	 72.831441	
5.52218	 72.943512	
5.55544	 72.587882	
5.58871	 72.696893	
5.62198	 72.395403	
5.65524	 72.119088	
5.68851	 72.118578	
5.72177	 71.574040	
5.75504	 71.117778	
5.78831	 71.079718	
5.82157	 70.792509	
5.85484	 70.605722	
5.8881	 70.635306	
5.92137	 68.156290	
5.95464	 68.208756	
5.9879	 65.746487	
6.02117	 65.660868	
6.05444	 65.631444	
6.0877	 65.134838	
6.12097	 63.749017	
6.15423	 63.734316	
6.1875	 63.305614	
6.22077	 61.825775	
6.25403	 61.749569	
6.2873	 61.275007	
6.32056	 61.339289	
6.35383	 60.853909	
6.3871	 60.639686	
6.42036	 60.596395	
6.45363	 58.477289	
6.4869	 58.158575	
6.52016	 58.095470	
6.55343	 57.932836	
6.58669	 55.058626	
6.61996	 54.972989	
6.65323	 54.621619	
6.68649	 54.558352	
6.71976	 54.450938	
6.75302	 54.328581	
6.78629	 54.265178	
6.81956	 54.406799	
6.85282	 54.549571	
6.88609	 54.646173	
6.91935	 54.615223	
6.95262	 54.683411	
6.98589	 54.762482	
7.01915	 54.741799	
7.05242	 54.701398	
7.08569	 54.823291	
7.11895	 54.762841	
7.15222	 54.765383	
7.18548	 54.774817	
7.21875	 54.796198	
7.25202	 54.724326	
7.28528	 54.844001	
7.31855	 54.860598	
7.35181	 54.884232	
7.38508	 54.905199	
7.41835	 54.838847	
7.45161	 54.780229	
7.48488	 54.681828	
7.51815	 54.635299	
7.55141	 54.800535	
7.58468	 54.821614	
7.61794	 54.787915	
7.65121	 54.840027	
7.68448	 54.883694	
7.71774	 54.942086	
7.75101	 54.912367	
7.78427	 54.933210	
7.81754	 55.004659	
7.85081	 55.055503	
7.88407	 55.155544	
7.91734	 55.121430	
7.9506	 55.185681	
7.98387	 55.186995	
8.01714	 55.206622	
8.0504	 55.234267	
8.08367	 55.262259	
8.11694	 55.324433	
8.1502	 55.314376	
8.18347	 55.369994	
8.21673	 55.409073	
8.25	 55.443072	
8.28327	 55.457858	
8.31653	 55.441859	
8.3498	 55.439497	
8.38306	 55.411198	
8.41633	 55.425913	
8.4496	 55.391371	
8.48286	 55.391920	
8.51613	 55.404397	
8.5494	 55.386310	
8.58266	 55.367988	
8.61593	 55.364336	
8.64919	 55.355997	
8.68246	 55.367010	
8.71573	 55.378199	
8.74899	 55.378105	
8.78226	 55.348985	
8.81552	 55.360562	
8.84879	 55.360176	
8.88206	 55.326983	
8.91532	 55.390785	
8.94859	 55.446204	
8.98185	 55.461963	
9.01512	 55.470520	
9.04839	 55.467587	
9.08165	 55.461870	
9.11492	 55.450575	
9.14819	 55.430554	
9.18145	 55.418217	
9.21472	 55.407374	
9.24798	 55.364765	
9.28125	 55.453780	
9.31452	 55.475921	
9.34778	 55.460200	
9.38105	 55.505701	
9.41431	 55.483725	
9.44758	 55.475915	
9.48085	 55.491599	
9.51411	 55.474076	
9.54738	 55.504494	
9.58065	 55.509660	
9.61391	 55.522502	
9.64718	 55.562985	
9.68044	 55.572612	
9.71371	 55.570380	
9.74698	 55.581208	
9.78024	 55.599161	
9.81351	 55.606345	
9.84677	 55.583886	
9.88004	 55.617242	
9.91331	 55.571684	
9.94657	 55.577176	
9.97984	 55.595742	
10.0131	 55.594706	
10.0464	 55.542922	
10.0796	 55.510519	
10.1129	 55.531200	
10.1462	 55.556708	
10.1794	 55.578958	
10.2127	 55.605609	
10.246	 55.605728	
10.2792	 55.709602	
10.3125	 57.842791	
10.3458	 57.852756	
10.379	 58.206282	
10.4123	 61.401511	
10.4456	 61.514024	
10.4788	 61.598660	
10.5121	 61.742974	
10.5454	 61.938566	
10.5786	 62.032836	
10.6119	 62.087889	
10.6452	 62.460781	
10.6784	 62.641230	
10.7117	 62.652984	
10.745	 62.418145	
10.7782	 62.314241	
10.8115	 62.426759	
10.8448	 62.534708	
10.878	 62.708340	
10.9113	 62.663399	
10.9446	 62.710616	
10.9778	 62.735128	
11.0111	 62.602728	
11.0444	 62.467195	
11.0776	 62.427046	
11.1109	 62.440754	
11.1442	 62.511225	
11.1774	 62.452256	
11.2107	 62.524441	
11.244	 62.563446	
11.2772	 62.566717	
11.3105	 62.665560	
11.3437	 62.657919	
11.377	 62.685117	
11.4103	 62.615853	
11.4435	 62.591256	
11.4768	 62.703580	
11.5101	 62.747587	
11.5433	 62.784212	
11.5766	 62.801524	
11.6099	 62.814206	
11.6431	 62.807381	
11.6764	 62.851968	
11.7097	 62.859492	
11.7429	 62.868802	
11.7762	 62.870140	
11.8095	 62.868737	
11.8427	 62.885504	
11.876	 62.890103	
11.9093	 62.903650	
11.9425	 62.884225	
11.9758	 62.877967	
12.0091	 62.871289	
12.0423	 62.829228	
12.0756	 62.875571	
12.1089	 62.840947	
12.1421	 62.794775	
12.1754	 62.798139	
12.2087	 62.799445	
12.2419	 62.845471	
12.2752	 62.891216	
12.3085	 62.795867	
12.3417	 62.738995	
12.375	 62.724347	
12.4083	 62.685671	
12.4415	 62.699600	
12.4748	 62.687877	
12.5081	 62.642943	
12.5413	 62.640760	
12.5746	 62.659250	
12.6079	 62.650226	
12.6411	 62.651805	
12.6744	 62.636923	
12.7077	 62.602079	
12.7409	 62.591447	
12.7742	 62.571215	
12.8075	 62.542332	
12.8407	 62.544985	
12.874	 62.520203	
12.9073	 62.514109	
12.9405	 62.506771	
12.9738	 62.554695	
13.0071	 62.589532	
13.0403	 62.616522	
13.0736	 62.587280	
13.1069	 62.545550	
13.1401	 62.507446	
13.1734	 62.501888	
13.2067	 62.549937	
13.2399	 62.547649	
